<svg id="svg" xmlns="http://www.w3.org/2000/svg" xmlns:xlink="http://www.w3.org/1999/xlink" width="400" height="233.0275229357798" viewBox="0, 0, 400,233.0275229357798"><g id="svgg"><path id="path0" d="M81.804 6.529 C 79.870 6.672,78.287 7.014,78.287 7.290 C 78.287 7.566,76.860 7.823,75.115 7.863 C 73.371 7.902,71.664 8.213,71.323 8.554 C 70.982 8.895,70.208 9.174,69.602 9.174 C 68.997 9.174,68.502 9.450,68.502 9.786 C 68.502 10.122,67.538 10.398,66.361 10.398 C 65.183 10.398,64.220 10.604,64.220 10.856 C 64.220 11.109,62.569 11.843,60.550 12.488 C 58.532 13.133,56.881 13.857,56.881 14.098 C 56.881 14.339,56.399 14.694,55.810 14.887 C 54.190 15.417,49.630 18.219,48.163 19.585 C 47.449 20.250,46.526 20.795,46.113 20.795 C 45.700 20.795,45.270 21.006,45.158 21.264 C 45.046 21.522,43.578 22.822,41.896 24.153 C 36.930 28.083,28.524 36.954,26.466 40.439 C 25.893 41.408,25.208 42.202,24.945 42.202 C 24.681 42.202,24.465 42.615,24.465 43.119 C 24.465 43.624,24.190 44.037,23.853 44.037 C 23.517 44.037,23.242 44.398,23.242 44.839 C 23.242 45.280,22.691 46.232,22.018 46.954 C 21.346 47.676,20.795 48.691,20.795 49.210 C 20.795 49.729,20.520 50.153,20.183 50.153 C 19.847 50.153,19.572 50.566,19.572 51.070 C 19.572 51.575,19.297 51.988,18.960 51.988 C 18.624 51.988,18.349 52.256,18.349 52.584 C 18.349 53.191,15.154 60.596,14.058 62.530 C 13.727 63.114,13.456 64.141,13.456 64.811 C 13.456 65.482,13.053 67.068,12.562 68.336 C 10.012 74.914,10.130 108.160,12.731 115.902 C 13.070 116.911,13.707 119.044,14.147 120.642 C 14.586 122.240,15.161 123.547,15.424 123.547 C 15.687 123.547,15.902 124.098,15.902 124.771 C 15.902 125.443,16.177 125.994,16.514 125.994 C 16.850 125.994,17.125 126.820,17.125 127.829 C 17.125 128.838,17.401 129.664,17.737 129.664 C 18.073 129.664,18.349 130.043,18.349 130.506 C 18.349 130.970,18.767 131.696,19.277 132.119 C 19.788 132.543,20.669 133.884,21.234 135.100 C 21.799 136.315,22.757 137.754,23.363 138.298 C 23.969 138.842,24.465 139.745,24.465 140.305 C 24.465 140.865,24.878 141.481,25.382 141.675 C 25.887 141.868,26.300 142.372,26.300 142.793 C 26.300 143.214,27.401 144.809,28.746 146.338 C 30.092 147.867,31.193 149.258,31.193 149.430 C 31.193 150.188,35.544 154.128,36.381 154.128 C 36.891 154.128,37.309 154.492,37.309 154.936 C 37.309 155.765,40.528 158.613,43.310 160.245 C 44.170 160.749,45.689 161.919,46.686 162.844 C 47.684 163.769,48.871 164.526,49.326 164.526 C 49.781 164.526,50.153 164.801,50.153 165.138 C 50.153 165.474,50.440 165.749,50.790 165.749 C 51.141 165.749,52.018 166.300,52.740 166.972 C 53.462 167.645,54.689 168.196,55.467 168.196 C 56.245 168.196,56.881 168.429,56.881 168.714 C 56.881 169.173,58.881 170.147,63.484 171.932 C 64.257 172.232,65.546 172.477,66.349 172.477 L 67.809 172.477 67.800 143.375 C 67.790 112.118,67.806 111.956,70.890 111.913 C 71.426 111.906,72.554 111.361,73.394 110.703 C 74.235 110.046,75.130 109.501,75.382 109.494 C 76.241 109.468,75.936 177.816,75.076 178.131 C 74.656 178.285,70.141 178.328,65.043 178.227 C 54.230 178.011,54.929 177.465,55.576 185.627 L 55.963 190.520 72.324 190.683 L 88.685 190.846 88.685 135.178 C 88.685 91.065,88.844 79.506,89.450 79.486 C 89.870 79.472,91.167 78.646,92.332 77.651 C 95.124 75.264,97.704 75.246,100.218 77.594 L 102.094 79.346 102.270 90.023 C 102.468 101.984,102.275 101.453,107.339 103.978 C 109.021 104.817,110.931 105.985,111.583 106.574 C 112.235 107.163,113.130 107.645,113.571 107.645 C 114.012 107.645,114.373 107.920,114.373 108.257 C 114.373 108.593,114.890 108.869,115.521 108.869 C 116.153 108.869,116.965 109.225,117.327 109.660 C 117.688 110.096,118.960 110.835,120.154 111.303 C 121.348 111.772,122.324 112.379,122.324 112.652 C 122.324 112.926,122.875 113.150,123.547 113.150 C 124.754 113.150,124.771 113.558,124.771 142.813 L 124.771 172.477 126.306 172.477 C 127.691 172.477,132.196 170.789,134.557 169.386 C 135.061 169.087,136.437 168.362,137.615 167.777 C 138.792 167.192,140.112 166.365,140.548 165.941 C 140.985 165.516,142.361 164.693,143.607 164.114 C 144.852 163.534,146.317 162.564,146.861 161.958 C 147.405 161.352,148.044 160.856,148.281 160.856 C 148.946 160.856,150.459 159.187,150.459 158.453 C 150.459 158.093,150.912 157.798,151.465 157.798 C 152.638 157.798,160.278 150.310,163.632 145.872 C 164.904 144.190,166.175 142.722,166.458 142.610 C 166.741 142.497,166.972 142.068,166.972 141.655 C 166.972 141.241,167.518 140.317,168.186 139.601 C 170.346 137.283,174.924 128.847,174.924 127.185 C 174.924 126.530,175.199 125.994,175.535 125.994 C 175.872 125.994,176.147 125.031,176.147 123.853 C 176.147 122.676,176.422 121.713,176.758 121.713 C 177.095 121.713,177.370 121.162,177.370 120.489 C 177.370 119.817,177.645 119.266,177.982 119.266 C 178.318 119.266,178.593 118.716,178.593 118.043 C 178.593 117.370,178.819 116.820,179.096 116.820 C 179.372 116.820,179.663 115.391,179.743 113.646 C 179.822 111.900,180.056 110.200,180.261 109.868 C 181.641 107.635,181.625 74.999,180.243 73.617 C 180.008 73.383,179.817 72.014,179.817 70.576 C 179.817 69.139,179.541 67.792,179.205 67.584 C 178.869 67.376,178.593 66.397,178.593 65.407 C 178.593 64.418,178.318 63.609,177.982 63.609 C 177.645 63.609,177.370 63.196,177.370 62.691 C 177.370 62.187,177.095 61.774,176.758 61.774 C 176.422 61.774,176.147 60.810,176.147 59.633 C 176.147 58.456,175.884 57.492,175.563 57.492 C 175.242 57.492,174.794 56.507,174.568 55.303 C 174.342 54.099,173.779 52.968,173.317 52.791 C 172.855 52.614,172.477 51.967,172.477 51.354 C 172.477 50.742,171.995 49.759,171.407 49.170 C 170.818 48.581,170.313 47.942,170.284 47.750 C 170.037 46.120,166.468 40.458,164.243 38.167 C 163.557 37.462,162.186 35.850,161.195 34.585 C 158.593 31.263,153.129 26.163,150.872 24.949 C 149.804 24.375,149.156 23.893,149.432 23.879 C 149.995 23.850,148.313 22.018,147.725 22.018 C 147.518 22.018,146.798 21.505,146.125 20.877 C 145.451 20.250,143.605 19.080,142.022 18.279 C 140.439 17.477,138.603 16.332,137.942 15.735 C 137.281 15.138,136.386 14.785,135.954 14.951 C 135.522 15.116,135.168 15.033,135.168 14.764 C 135.168 14.496,133.723 13.647,131.957 12.879 C 130.191 12.110,128.268 11.238,127.684 10.939 C 127.100 10.641,125.930 10.398,125.085 10.398 C 124.239 10.398,123.547 10.122,123.547 9.786 C 123.547 9.450,123.052 9.174,122.446 9.174 C 121.841 9.174,121.084 8.914,120.765 8.595 C 120.445 8.277,118.945 7.951,117.431 7.870 C 115.917 7.790,114.497 7.455,114.274 7.125 C 113.859 6.509,88.392 6.041,81.804 6.529 M107.645 19.189 C 114.340 20.473,118.698 21.669,120.918 22.830 C 121.994 23.393,123.212 23.853,123.624 23.853 C 124.866 23.853,133.566 28.305,134.628 29.483 C 135.172 30.087,135.932 30.581,136.316 30.581 C 136.700 30.581,137.878 31.407,138.934 32.416 C 139.990 33.425,141.242 34.251,141.717 34.251 C 142.192 34.251,142.410 34.526,142.202 34.862 C 141.994 35.199,142.115 35.474,142.470 35.474 C 143.277 35.474,151.070 43.252,151.070 44.058 C 151.070 44.383,151.499 44.648,152.024 44.648 C 152.548 44.648,152.807 44.924,152.599 45.260 C 152.391 45.596,152.667 45.872,153.211 45.872 C 153.755 45.872,154.036 46.138,153.835 46.464 C 153.633 46.789,154.305 47.931,155.328 49.001 C 156.350 50.071,157.187 51.257,157.187 51.638 C 157.187 52.018,157.737 52.726,158.410 53.211 C 159.083 53.696,159.633 54.582,159.633 55.181 C 159.633 55.779,159.908 56.269,160.245 56.269 C 160.581 56.269,160.856 56.624,160.856 57.057 C 160.856 57.491,161.404 58.920,162.074 60.234 C 162.744 61.548,163.463 63.532,163.671 64.645 C 163.880 65.757,164.295 66.667,164.594 66.667 C 164.893 66.667,165.138 67.201,165.138 67.854 C 165.138 68.507,165.413 69.211,165.749 69.419 C 166.086 69.627,166.361 70.728,166.361 71.865 C 166.361 73.003,166.636 74.104,166.972 74.312 C 167.309 74.520,167.584 75.657,167.584 76.838 C 167.584 78.020,167.988 79.390,168.482 79.884 C 169.076 80.479,169.254 81.405,169.009 82.629 C 168.802 83.665,168.974 85.102,169.401 85.899 C 169.939 86.905,170.045 88.907,169.762 92.743 C 169.543 95.725,169.361 99.311,169.359 100.711 C 169.356 102.367,169.045 103.377,168.469 103.597 C 167.960 103.793,167.584 104.742,167.584 105.831 C 167.584 106.873,167.307 108.244,166.968 108.878 C 166.628 109.511,166.270 110.801,166.171 111.743 C 166.071 112.685,165.571 114.419,165.058 115.596 C 164.546 116.774,163.611 119.182,162.982 120.948 C 162.353 122.714,161.617 124.159,161.347 124.159 C 161.077 124.159,160.856 124.845,160.856 125.683 C 160.856 126.578,160.100 127.929,159.021 128.960 C 158.012 129.924,157.187 131.043,157.187 131.445 C 157.187 131.847,156.362 133.056,155.355 134.131 C 154.347 135.206,153.521 136.567,153.520 137.156 C 153.518 137.745,153.127 138.226,152.650 138.226 C 152.174 138.226,151.645 138.570,151.475 138.991 C 151.306 139.411,151.122 134.251,151.068 127.523 C 150.941 111.868,150.330 109.480,146.452 109.480 C 145.964 109.480,145.566 109.205,145.566 108.869 C 145.566 108.532,145.279 108.257,144.929 108.257 C 144.578 108.257,143.701 107.706,142.978 107.034 C 142.256 106.361,141.052 105.810,140.303 105.810 C 139.553 105.810,138.848 105.575,138.736 105.286 C 138.535 104.770,132.297 100.823,127.523 98.191 C 122.730 95.549,120.161 94.030,118.560 92.895 C 117.667 92.261,116.635 91.743,116.266 91.743 C 115.807 91.743,115.596 88.495,115.596 81.420 L 115.596 71.096 113.826 70.363 C 112.852 69.960,111.545 69.169,110.921 68.607 C 110.296 68.044,108.823 67.109,107.645 66.528 C 105.441 65.440,101.034 62.936,98.645 61.414 C 96.767 60.217,94.962 60.335,93.133 61.774 C 92.278 62.446,91.268 62.997,90.890 62.997 C 90.511 62.997,89.496 63.651,88.634 64.450 C 87.772 65.250,86.399 66.115,85.582 66.373 C 84.766 66.631,83.246 67.491,82.205 68.284 C 81.164 69.076,79.909 69.725,79.415 69.725 C 76.327 69.725,75.841 71.558,75.841 83.204 C 75.841 92.785,75.388 96.196,74.479 93.468 C 74.203 92.639,73.625 92.858,69.419 95.393 C 67.737 96.406,64.778 98.102,62.844 99.162 C 60.910 100.221,59.327 101.325,59.327 101.614 C 59.327 101.904,58.911 102.141,58.401 102.141 C 57.318 102.141,55.305 103.227,53.586 104.740 C 52.916 105.329,51.996 105.810,51.541 105.810 C 51.086 105.810,50.123 106.361,49.400 107.034 C 48.678 107.706,47.726 108.257,47.285 108.257 C 46.844 108.257,46.483 108.532,46.483 108.869 C 46.483 109.205,46.028 109.480,45.471 109.480 C 44.914 109.480,43.537 110.182,42.412 111.040 L 40.367 112.600 40.367 126.100 C 40.367 138.030,40.260 139.511,39.450 138.838 C 38.945 138.419,38.532 137.758,38.532 137.369 C 38.532 136.980,37.982 136.265,37.309 135.780 C 36.636 135.295,36.086 134.530,36.086 134.079 C 36.086 133.629,35.122 131.998,33.945 130.456 C 32.768 128.914,31.804 127.165,31.804 126.569 C 31.804 125.972,31.554 125.392,31.249 125.280 C 30.943 125.168,30.599 124.526,30.484 123.853 C 30.369 123.180,29.862 122.214,29.358 121.706 C 27.801 120.138,26.911 118.142,26.911 116.216 C 26.911 115.203,26.667 114.373,26.369 114.373 C 25.868 114.373,25.597 113.380,24.798 108.625 C 24.634 107.651,24.163 105.862,23.752 104.650 C 22.772 101.762,22.705 81.266,23.665 77.949 C 24.049 76.621,24.689 74.297,25.086 72.783 C 25.483 71.269,26.056 69.553,26.359 68.969 C 26.663 68.384,26.911 67.100,26.911 66.114 C 26.911 65.129,27.127 64.230,27.390 64.118 C 28.006 63.856,30.581 59.447,30.581 58.655 C 30.581 58.324,31.138 57.455,31.819 56.724 C 32.500 55.993,32.922 55.041,32.756 54.609 C 32.589 54.173,32.884 53.823,33.418 53.823 C 34.034 53.823,34.251 53.483,34.021 52.882 C 33.816 52.348,34.050 51.792,34.563 51.595 C 35.060 51.404,35.315 51.002,35.129 50.700 C 34.942 50.399,35.214 50.153,35.732 50.153 C 36.251 50.153,36.860 49.398,37.089 48.471 C 37.318 47.546,38.011 46.344,38.630 45.800 C 39.249 45.256,39.755 44.499,39.755 44.118 C 39.755 43.737,40.188 43.425,40.716 43.425 C 41.953 43.425,43.425 41.953,43.425 40.716 C 43.425 40.138,43.953 39.755,44.750 39.755 C 45.479 39.755,45.909 39.589,45.705 39.385 C 45.258 38.938,48.004 36.086,48.880 36.086 C 49.220 36.086,49.793 35.535,50.153 34.862 C 50.513 34.190,51.211 33.639,51.703 33.639 C 52.196 33.639,52.599 33.382,52.599 33.069 C 52.599 32.755,53.150 32.324,53.823 32.110 C 54.495 31.897,55.046 31.311,55.046 30.810 C 55.046 30.308,55.276 30.040,55.558 30.214 C 55.840 30.388,57.009 29.727,58.157 28.746 C 59.305 27.764,60.864 26.950,61.621 26.936 C 62.378 26.923,62.997 26.636,62.997 26.300 C 62.997 25.963,63.524 25.688,64.169 25.688 C 64.814 25.688,65.433 25.437,65.545 25.129 C 65.977 23.947,73.892 21.549,85.933 18.955 C 92.162 17.612,99.863 17.695,107.645 19.189 M85.474 27.268 C 85.178 27.564,82.397 28.030,75.219 28.986 C 74.708 29.054,74.020 29.268,73.690 29.460 C 73.359 29.653,71.644 30.174,69.878 30.617 C 68.112 31.061,66.667 31.647,66.667 31.920 C 66.667 32.193,66.116 32.416,65.443 32.416 C 64.771 32.416,64.220 32.691,64.220 33.028 C 64.220 33.364,63.670 33.639,62.997 33.639 C 62.324 33.639,61.774 33.914,61.774 34.251 C 61.774 34.587,61.493 34.862,61.150 34.862 C 60.807 34.862,59.390 35.619,58.000 36.544 C 56.611 37.469,55.049 38.502,54.528 38.838 C 51.929 40.517,45.260 46.959,45.260 47.790 C 45.260 48.248,44.365 49.485,42.507 51.597 C 41.358 52.903,37.309 59.815,37.309 60.471 C 37.309 60.831,36.758 62.105,36.086 63.303 C 35.413 64.501,34.862 66.144,34.862 66.955 C 34.862 67.766,34.587 68.599,34.251 68.807 C 33.914 69.015,33.639 70.529,33.639 72.171 C 33.639 73.814,33.364 75.327,33.028 75.535 C 31.872 76.249,32.324 81.676,33.684 83.404 C 37.347 88.061,42.718 84.274,43.109 76.758 C 43.284 73.374,44.068 69.777,44.718 69.376 C 45.016 69.192,45.260 68.530,45.260 67.905 C 45.260 67.280,45.527 66.677,45.854 66.565 C 46.181 66.453,46.533 65.794,46.638 65.102 C 46.743 64.410,47.419 63.210,48.140 62.436 C 48.861 61.661,49.305 60.645,49.125 60.178 C 48.946 59.710,49.103 59.327,49.476 59.327 C 49.848 59.327,50.153 59.016,50.153 58.636 C 50.153 57.555,60.876 46.483,61.923 46.483 C 62.267 46.483,62.993 45.972,63.537 45.348 C 64.081 44.723,66.177 43.462,68.196 42.546 C 73.536 40.121,74.153 39.879,75.841 39.543 C 76.682 39.376,79.021 38.815,81.040 38.296 C 83.058 37.777,86.361 37.338,88.379 37.321 C 92.549 37.286,93.306 36.949,94.536 34.579 C 95.559 32.607,95.670 31.193,94.801 31.193 C 94.465 31.193,94.190 30.800,94.190 30.320 C 94.190 28.072,87.139 25.603,85.474 27.268 M260.421 86.135 C 256.950 87.149,252.546 90.496,250.994 93.297 C 250.052 94.998,250.250 104.110,251.236 104.438 C 251.649 104.576,251.988 105.165,251.988 105.747 C 251.988 107.165,254.946 109.904,257.034 110.420 C 257.959 110.649,258.716 111.081,258.716 111.381 C 258.716 111.681,259.663 111.927,260.820 111.927 C 261.978 111.927,263.095 112.202,263.303 112.538 C 263.511 112.875,264.264 113.150,264.977 113.150 C 267.220 113.150,274.006 115.588,274.006 116.393 C 274.006 116.667,274.281 116.722,274.618 116.514 C 275.917 115.711,275.156 119.395,273.728 120.823 C 272.135 122.416,262.385 123.181,262.385 121.713 C 262.385 121.376,261.713 121.101,260.892 121.101 C 260.071 121.101,259.229 120.826,259.021 120.489 C 258.814 120.153,258.109 119.878,257.456 119.878 C 256.803 119.878,256.267 119.671,256.264 119.419 C 256.262 119.167,255.626 118.667,254.852 118.308 C 253.471 117.669,251.682 118.645,251.682 120.038 C 251.682 120.311,251.329 120.752,250.897 121.019 C 250.463 121.287,250.287 121.962,250.503 122.526 C 250.724 123.101,250.600 123.547,250.218 123.547 C 249.293 123.547,249.360 126.520,250.306 127.425 C 254.330 131.275,269.669 133.102,276.978 130.601 C 280.520 129.389,285.627 125.116,285.627 123.365 C 285.627 122.792,285.902 122.324,286.239 122.324 C 286.592 122.324,286.850 120.387,286.850 117.737 C 286.850 114.791,286.608 113.150,286.173 113.150 C 285.801 113.150,285.640 112.774,285.817 112.314 C 286.337 110.959,280.134 105.810,277.982 105.810 C 277.468 105.810,276.570 105.563,275.986 105.261 C 275.401 104.958,272.722 104.236,270.031 103.656 C 264.710 102.509,263.089 101.848,261.946 100.359 C 258.549 95.934,270.347 93.088,277.906 96.509 C 281.689 98.221,281.445 98.276,282.820 95.406 C 283.463 94.064,284.203 92.966,284.465 92.966 C 284.851 92.966,284.855 91.151,284.473 89.256 C 283.808 85.954,268.040 83.907,260.421 86.135 M209.327 86.076 C 208.809 86.256,208.563 87.791,208.563 90.851 L 208.563 95.361 213.303 95.540 L 218.043 95.719 218.205 113.303 L 218.367 130.887 223.564 130.887 L 228.761 130.887 228.601 108.410 L 228.440 85.933 219.266 85.873 C 214.220 85.840,209.748 85.931,209.327 86.076 M292.440 88.632 C 292.095 88.846,291.728 90.665,291.625 92.675 L 291.437 96.330 289.144 96.520 L 286.850 96.710 286.850 101.223 L 286.850 105.737 289.144 105.926 L 291.437 106.116 291.437 113.304 C 291.437 117.935,291.667 120.491,292.082 120.490 C 292.437 120.490,292.790 121.659,292.866 123.089 C 293.027 126.121,296.009 129.440,299.738 130.738 C 306.038 132.932,315.326 130.475,313.257 127.162 C 312.862 126.529,312.538 125.649,312.538 125.207 C 312.538 123.551,310.970 121.110,309.903 121.106 C 309.294 121.103,308.966 121.376,309.174 121.713 C 309.772 122.680,305.226 122.439,304.238 121.450 C 303.577 120.790,303.364 118.777,303.364 113.194 L 303.364 105.810 307.339 105.810 C 310.074 105.810,311.337 105.572,311.387 105.046 C 311.457 104.294,311.442 100.716,311.358 98.012 C 311.318 96.731,311.042 96.636,307.339 96.636 L 303.364 96.636 303.364 92.661 C 303.364 90.474,303.157 88.655,302.905 88.618 C 300.840 88.314,292.937 88.325,292.440 88.632 M328.746 96.024 C 328.538 96.361,327.421 96.636,326.264 96.636 C 325.106 96.636,324.159 96.911,324.159 97.248 C 324.159 97.584,323.677 97.864,323.089 97.869 C 320.690 97.891,314.985 104.979,314.985 107.938 C 314.985 108.786,314.709 109.480,314.373 109.480 C 314.029 109.480,313.761 111.201,313.761 113.420 C 313.761 115.586,314.037 117.529,314.373 117.737 C 314.709 117.945,314.985 118.653,314.985 119.310 C 314.985 120.631,315.877 122.364,317.737 124.660 C 320.459 128.019,321.204 128.524,326.787 130.801 C 330.987 132.513,341.682 131.049,344.688 128.351 C 345.382 127.727,346.361 127.217,346.864 127.217 C 347.366 127.217,348.263 126.116,348.856 124.771 C 349.450 123.425,350.191 122.324,350.503 122.324 C 350.815 122.324,351.070 121.498,351.070 120.489 C 351.070 119.480,351.346 118.654,351.682 118.654 C 352.042 118.654,352.294 116.514,352.294 113.456 C 352.294 110.398,352.042 108.257,351.682 108.257 C 351.346 108.257,351.070 107.818,351.070 107.281 C 351.070 106.744,350.501 105.506,349.805 104.529 C 349.110 103.552,348.745 102.752,348.995 102.752 C 349.244 102.752,348.802 102.064,348.012 101.223 C 347.222 100.382,346.195 99.694,345.729 99.694 C 345.263 99.694,345.038 99.441,345.229 99.132 C 345.420 98.823,344.748 98.389,343.736 98.166 C 342.724 97.944,341.896 97.509,341.896 97.199 C 341.896 96.889,341.070 96.636,340.061 96.636 C 339.052 96.636,338.226 96.361,338.226 96.024 C 338.226 95.672,336.302 95.413,333.675 95.413 C 331.172 95.413,328.954 95.688,328.746 96.024 M371.865 95.880 C 371.865 96.287,367.480 98.471,366.662 98.471 C 366.497 98.471,366.361 98.058,366.361 97.554 C 366.361 96.810,365.375 96.636,361.162 96.636 L 355.963 96.636 355.963 119.811 L 355.963 142.987 357.339 143.254 C 358.493 143.477,364.071 143.439,366.820 143.189 C 367.381 143.138,367.584 141.329,367.584 136.391 C 367.584 129.175,367.659 129.038,370.729 130.626 C 372.500 131.542,373.993 131.572,383.639 130.887 C 384.228 130.845,384.709 130.553,384.709 130.237 C 384.709 129.922,385.144 129.664,385.675 129.664 C 386.830 129.664,391.202 125.252,391.746 123.537 C 391.958 122.870,392.388 122.324,392.702 122.324 C 393.015 122.324,393.272 121.515,393.272 120.525 C 393.272 119.536,393.547 118.557,393.884 118.349 C 394.220 118.141,394.495 115.785,394.495 113.114 C 394.495 110.284,394.240 108.257,393.884 108.257 C 393.547 108.257,393.272 107.431,393.272 106.422 C 393.272 105.413,393.043 104.587,392.764 104.587 C 392.484 104.587,391.865 103.830,391.388 102.905 C 389.739 99.710,385.537 96.636,382.817 96.636 C 382.215 96.636,381.553 96.361,381.346 96.024 C 380.908 95.317,371.865 95.179,371.865 95.880 M335.858 105.451 C 342.057 108.048,342.881 118.163,337.108 120.787 C 336.377 121.119,335.780 121.601,335.780 121.858 C 335.780 122.114,334.541 122.324,333.028 122.324 C 331.514 122.324,330.275 122.049,330.275 121.713 C 330.275 121.376,329.843 121.101,329.314 121.101 C 328.078 121.101,326.606 119.628,326.606 118.392 C 326.606 117.864,326.330 117.431,325.994 117.431 C 325.116 117.431,325.238 110.940,326.147 109.343 C 328.527 105.158,331.916 103.800,335.858 105.451 M378.899 106.354 C 380.245 107.304,381.277 108.395,381.193 108.780 C 381.109 109.165,381.315 109.480,381.651 109.480 C 382.624 109.480,382.366 116.425,381.316 118.531 C 379.245 122.682,373.132 123.543,369.748 120.160 C 362.991 113.403,371.244 100.952,378.899 106.354 M102.726 116.361 C 102.701 117.122,102.712 188.604,102.739 190.061 C 102.749 190.654,106.520 190.826,119.517 190.826 L 136.282 190.826 136.708 185.709 C 137.373 177.719,137.749 177.982,125.667 177.982 L 115.596 177.982 115.596 150.438 L 115.596 122.895 113.476 120.775 C 112.310 119.609,111.029 118.654,110.629 118.654 C 110.229 118.654,108.999 117.966,107.897 117.125 C 105.783 115.513,102.770 115.068,102.726 116.361 M69.678 202.294 C 69.593 205.398,69.814 212.526,70.003 212.714 C 70.288 213.000,119.362 212.931,121.101 212.642 C 121.942 212.503,122.836 212.353,123.089 212.310 C 123.977 212.159,123.604 202.416,122.674 201.485 C 121.944 200.755,117.513 200.612,95.762 200.612 L 69.725 200.612 69.678 202.294 " stroke="none" fill="#d21b1b" fill-rule="evenodd"></path></g></svg>